<svg width="181" height="29" viewBox="0 0 181 29" fill="none" xmlns="http://www.w3.org/2000/svg">
<g filter="url(#filter0_d_12405_6)">
<mask id="path-1-outside-1_12405_6" maskUnits="userSpaceOnUse" x="-1.09601" y="0.951996" width="184" height="23" fill="black">
<rect fill="white" x="-1.09601" y="0.951996" width="184" height="23"/>
<path d="M-0.0960083 22V2.12H4.49599V17.968H14.128V22H-0.0960083Z"/>
<path d="M24.6354 22.168C23.1421 22.168 21.7888 21.888 20.5754 21.328C19.3808 20.7493 18.3448 19.984 17.4674 19.032C16.6088 18.0613 15.9461 16.9787 15.4794 15.784C15.0128 14.5707 14.7794 13.32 14.7794 12.032C14.7794 10.7067 15.0221 9.44666 15.5074 8.252C16.0114 7.05733 16.7021 5.99333 17.5794 5.06C18.4754 4.108 19.5301 3.36133 20.7434 2.81999C21.9568 2.27866 23.2821 2.00799 24.7194 2.00799C26.1941 2.00799 27.5288 2.29733 28.7234 2.876C29.9368 3.436 30.9728 4.20133 31.8314 5.172C32.7088 6.14266 33.3808 7.23466 33.8474 8.448C34.3141 9.64266 34.5474 10.8653 34.5474 12.116C34.5474 13.4413 34.3048 14.7013 33.8194 15.896C33.3341 17.0907 32.6434 18.164 31.7474 19.116C30.8514 20.0493 29.7968 20.796 28.5834 21.356C27.3888 21.8973 26.0728 22.168 24.6354 22.168ZM19.4554 12.088C19.4554 12.8533 19.5674 13.6 19.7914 14.328C20.0154 15.0373 20.3421 15.672 20.7714 16.232C21.2194 16.792 21.7701 17.24 22.4234 17.576C23.0768 17.912 23.8234 18.08 24.6634 18.08C25.5408 18.08 26.3061 17.912 26.9594 17.576C27.6128 17.2213 28.1541 16.7547 28.5834 16.176C29.0128 15.5973 29.3301 14.9533 29.5354 14.244C29.7594 13.516 29.8714 12.7787 29.8714 12.032C29.8714 11.2667 29.7594 10.5293 29.5354 9.81999C29.3114 9.11066 28.9754 8.476 28.5274 7.916C28.0794 7.33733 27.5288 6.88933 26.8754 6.572C26.2221 6.25466 25.4848 6.096 24.6634 6.096C23.7861 6.096 23.0208 6.264 22.3674 6.6C21.7328 6.936 21.1914 7.39333 20.7434 7.97199C20.3141 8.53199 19.9874 9.176 19.7634 9.904C19.5581 10.6133 19.4554 11.3413 19.4554 12.088Z"/>
<path d="M37.2009 22V2.12H46.1609C47.0942 2.12 47.9529 2.316 48.7369 2.708C49.5395 3.08133 50.2302 3.59466 50.8089 4.248C51.3875 4.88266 51.8355 5.60133 52.1529 6.404C52.4889 7.20666 52.6569 8.01866 52.6569 8.84C52.6569 9.66133 52.5262 10.4453 52.2649 11.192C52.0035 11.92 51.6302 12.5827 51.1449 13.18C50.6595 13.7587 50.0809 14.2347 49.4089 14.608L53.7769 22H48.7089L44.9009 15.588H41.7929V22H37.2009ZM41.7929 11.584H45.9929C46.3662 11.584 46.6929 11.472 46.9729 11.248C47.2715 11.0053 47.5142 10.6787 47.7009 10.268C47.8875 9.85733 47.9809 9.38133 47.9809 8.84C47.9809 8.29866 47.8689 7.832 47.6449 7.43999C47.4395 7.02933 47.1782 6.71199 46.8609 6.488C46.5435 6.26399 46.2075 6.15199 45.8529 6.15199H41.7929V11.584Z"/>
<path d="M69.9307 17.968V22H55.9587V2.12H69.6787V6.15199H60.5507V10.016H68.3907V13.74H60.5507V17.968H69.9307Z"/>
<path d="M88.4004 22V10.156L84.1164 18.78H81.5964L77.3124 10.156V22H72.7204V2.12H77.7044L82.8564 12.508L88.0364 2.12H92.9924V22H88.4004Z"/>
<path d="M96.8102 22V2.12H101.402V22H96.8102Z"/>
<path d="M105.205 22V2.12H113.689C114.641 2.12 115.509 2.316 116.293 2.708C117.095 3.08133 117.786 3.59466 118.365 4.248C118.943 4.88266 119.391 5.60133 119.709 6.404C120.026 7.20666 120.185 8.028 120.185 8.868C120.185 10.0067 119.914 11.0893 119.373 12.116C118.85 13.1427 118.113 13.9827 117.161 14.636C116.227 15.2707 115.117 15.588 113.829 15.588H109.797V22H105.205ZM109.797 11.584H113.549C113.903 11.584 114.23 11.4813 114.529 11.276C114.827 11.0707 115.07 10.7627 115.257 10.352C115.443 9.94133 115.537 9.43733 115.537 8.84C115.537 8.224 115.425 7.72 115.201 7.328C114.995 6.91733 114.725 6.61866 114.389 6.43199C114.071 6.24533 113.735 6.15199 113.381 6.15199H109.797V11.584Z"/>
<path d="M134.578 7.944C134.522 7.85066 134.326 7.71066 133.99 7.524C133.654 7.31866 133.234 7.104 132.73 6.88C132.226 6.65599 131.675 6.46 131.078 6.292C130.481 6.12399 129.883 6.04 129.286 6.04C128.502 6.04 127.895 6.18 127.466 6.46C127.037 6.72133 126.822 7.132 126.822 7.692C126.822 8.14 126.981 8.49466 127.298 8.756C127.634 9.01733 128.11 9.25066 128.726 9.456C129.342 9.64266 130.098 9.86666 130.994 10.128C132.263 10.464 133.365 10.8747 134.298 11.36C135.231 11.8267 135.941 12.4333 136.426 13.18C136.93 13.9267 137.182 14.916 137.182 16.148C137.182 17.268 136.977 18.22 136.566 19.004C136.155 19.7693 135.595 20.3947 134.886 20.88C134.195 21.3467 133.402 21.692 132.506 21.916C131.61 22.1213 130.686 22.224 129.734 22.224C128.763 22.224 127.765 22.1307 126.738 21.944C125.73 21.7387 124.759 21.4587 123.826 21.104C122.893 20.7307 122.034 20.2827 121.25 19.76L123.266 15.756C123.341 15.8493 123.583 16.0267 123.994 16.288C124.405 16.5307 124.909 16.792 125.506 17.072C126.122 17.3333 126.803 17.5667 127.55 17.772C128.297 17.9773 129.053 18.08 129.818 18.08C130.639 18.08 131.246 17.9493 131.638 17.688C132.049 17.4267 132.254 17.0627 132.254 16.596C132.254 16.092 132.039 15.7 131.61 15.42C131.199 15.14 130.63 14.888 129.902 14.664C129.193 14.44 128.371 14.188 127.438 13.908C126.225 13.5347 125.217 13.1147 124.414 12.648C123.63 12.1813 123.042 11.612 122.65 10.94C122.277 10.268 122.09 9.428 122.09 8.42C122.09 7.02 122.417 5.844 123.07 4.892C123.742 3.92133 124.638 3.19333 125.758 2.708C126.878 2.204 128.101 1.952 129.426 1.952C130.359 1.952 131.255 2.064 132.114 2.28799C132.991 2.51199 133.803 2.792 134.55 3.128C135.315 3.464 135.997 3.8 136.594 4.136L134.578 7.944Z"/>
<path d="M148.417 22.168C146.83 22.168 145.477 21.9067 144.357 21.384C143.237 20.8427 142.322 20.1147 141.613 19.2C140.922 18.2667 140.409 17.212 140.073 16.036C139.755 14.8413 139.597 13.5907 139.597 12.284V2.12H144.189V12.284C144.189 13.0307 144.263 13.7587 144.413 14.468C144.562 15.1587 144.805 15.7747 145.141 16.316C145.477 16.8573 145.906 17.2867 146.429 17.604C146.97 17.9213 147.633 18.08 148.417 18.08C149.219 18.08 149.891 17.9213 150.433 17.604C150.974 17.268 151.403 16.8293 151.721 16.288C152.038 15.728 152.271 15.1027 152.421 14.412C152.57 13.7213 152.645 13.012 152.645 12.284V2.12H157.237V12.284C157.237 13.6653 157.059 14.9533 156.705 16.148C156.369 17.3427 155.846 18.3973 155.137 19.312C154.427 20.208 153.513 20.908 152.393 21.412C151.291 21.916 149.966 22.168 148.417 22.168Z"/>
<path d="M176.475 22V10.156L172.191 18.78H169.671L165.387 10.156V22H160.795V2.12H165.779L170.931 12.508L176.111 2.12H181.067V22H176.475Z"/>
</mask>
<path d="M-0.0960083 22V2.12H4.49599V17.968H14.128V22H-0.0960083Z" fill="white"/>
<path d="M24.6354 22.168C23.1421 22.168 21.7888 21.888 20.5754 21.328C19.3808 20.7493 18.3448 19.984 17.4674 19.032C16.6088 18.0613 15.9461 16.9787 15.4794 15.784C15.0128 14.5707 14.7794 13.32 14.7794 12.032C14.7794 10.7067 15.0221 9.44666 15.5074 8.252C16.0114 7.05733 16.7021 5.99333 17.5794 5.06C18.4754 4.108 19.5301 3.36133 20.7434 2.81999C21.9568 2.27866 23.2821 2.00799 24.7194 2.00799C26.1941 2.00799 27.5288 2.29733 28.7234 2.876C29.9368 3.436 30.9728 4.20133 31.8314 5.172C32.7088 6.14266 33.3808 7.23466 33.8474 8.448C34.3141 9.64266 34.5474 10.8653 34.5474 12.116C34.5474 13.4413 34.3048 14.7013 33.8194 15.896C33.3341 17.0907 32.6434 18.164 31.7474 19.116C30.8514 20.0493 29.7968 20.796 28.5834 21.356C27.3888 21.8973 26.0728 22.168 24.6354 22.168ZM19.4554 12.088C19.4554 12.8533 19.5674 13.6 19.7914 14.328C20.0154 15.0373 20.3421 15.672 20.7714 16.232C21.2194 16.792 21.7701 17.24 22.4234 17.576C23.0768 17.912 23.8234 18.08 24.6634 18.08C25.5408 18.08 26.3061 17.912 26.9594 17.576C27.6128 17.2213 28.1541 16.7547 28.5834 16.176C29.0128 15.5973 29.3301 14.9533 29.5354 14.244C29.7594 13.516 29.8714 12.7787 29.8714 12.032C29.8714 11.2667 29.7594 10.5293 29.5354 9.81999C29.3114 9.11066 28.9754 8.476 28.5274 7.916C28.0794 7.33733 27.5288 6.88933 26.8754 6.572C26.2221 6.25466 25.4848 6.096 24.6634 6.096C23.7861 6.096 23.0208 6.264 22.3674 6.6C21.7328 6.936 21.1914 7.39333 20.7434 7.97199C20.3141 8.53199 19.9874 9.176 19.7634 9.904C19.5581 10.6133 19.4554 11.3413 19.4554 12.088Z" fill="white"/>
<path d="M37.2009 22V2.12H46.1609C47.0942 2.12 47.9529 2.316 48.7369 2.708C49.5395 3.08133 50.2302 3.59466 50.8089 4.248C51.3875 4.88266 51.8355 5.60133 52.1529 6.404C52.4889 7.20666 52.6569 8.01866 52.6569 8.84C52.6569 9.66133 52.5262 10.4453 52.2649 11.192C52.0035 11.92 51.6302 12.5827 51.1449 13.18C50.6595 13.7587 50.0809 14.2347 49.4089 14.608L53.7769 22H48.7089L44.9009 15.588H41.7929V22H37.2009ZM41.7929 11.584H45.9929C46.3662 11.584 46.6929 11.472 46.9729 11.248C47.2715 11.0053 47.5142 10.6787 47.7009 10.268C47.8875 9.85733 47.9809 9.38133 47.9809 8.84C47.9809 8.29866 47.8689 7.832 47.6449 7.43999C47.4395 7.02933 47.1782 6.71199 46.8609 6.488C46.5435 6.26399 46.2075 6.15199 45.8529 6.15199H41.7929V11.584Z" fill="white"/>
<path d="M69.9307 17.968V22H55.9587V2.12H69.6787V6.15199H60.5507V10.016H68.3907V13.74H60.5507V17.968H69.9307Z" fill="white"/>
<path d="M88.4004 22V10.156L84.1164 18.78H81.5964L77.3124 10.156V22H72.7204V2.12H77.7044L82.8564 12.508L88.0364 2.12H92.9924V22H88.4004Z" fill="white"/>
<path d="M96.8102 22V2.12H101.402V22H96.8102Z" fill="white"/>
<path d="M105.205 22V2.12H113.689C114.641 2.12 115.509 2.316 116.293 2.708C117.095 3.08133 117.786 3.59466 118.365 4.248C118.943 4.88266 119.391 5.60133 119.709 6.404C120.026 7.20666 120.185 8.028 120.185 8.868C120.185 10.0067 119.914 11.0893 119.373 12.116C118.85 13.1427 118.113 13.9827 117.161 14.636C116.227 15.2707 115.117 15.588 113.829 15.588H109.797V22H105.205ZM109.797 11.584H113.549C113.903 11.584 114.23 11.4813 114.529 11.276C114.827 11.0707 115.07 10.7627 115.257 10.352C115.443 9.94133 115.537 9.43733 115.537 8.84C115.537 8.224 115.425 7.72 115.201 7.328C114.995 6.91733 114.725 6.61866 114.389 6.43199C114.071 6.24533 113.735 6.15199 113.381 6.15199H109.797V11.584Z" fill="white"/>
<path d="M134.578 7.944C134.522 7.85066 134.326 7.71066 133.99 7.524C133.654 7.31866 133.234 7.104 132.73 6.88C132.226 6.65599 131.675 6.46 131.078 6.292C130.481 6.12399 129.883 6.04 129.286 6.04C128.502 6.04 127.895 6.18 127.466 6.46C127.037 6.72133 126.822 7.132 126.822 7.692C126.822 8.14 126.981 8.49466 127.298 8.756C127.634 9.01733 128.11 9.25066 128.726 9.456C129.342 9.64266 130.098 9.86666 130.994 10.128C132.263 10.464 133.365 10.8747 134.298 11.36C135.231 11.8267 135.941 12.4333 136.426 13.18C136.93 13.9267 137.182 14.916 137.182 16.148C137.182 17.268 136.977 18.22 136.566 19.004C136.155 19.7693 135.595 20.3947 134.886 20.88C134.195 21.3467 133.402 21.692 132.506 21.916C131.61 22.1213 130.686 22.224 129.734 22.224C128.763 22.224 127.765 22.1307 126.738 21.944C125.73 21.7387 124.759 21.4587 123.826 21.104C122.893 20.7307 122.034 20.2827 121.25 19.76L123.266 15.756C123.341 15.8493 123.583 16.0267 123.994 16.288C124.405 16.5307 124.909 16.792 125.506 17.072C126.122 17.3333 126.803 17.5667 127.55 17.772C128.297 17.9773 129.053 18.08 129.818 18.08C130.639 18.08 131.246 17.9493 131.638 17.688C132.049 17.4267 132.254 17.0627 132.254 16.596C132.254 16.092 132.039 15.7 131.61 15.42C131.199 15.14 130.63 14.888 129.902 14.664C129.193 14.44 128.371 14.188 127.438 13.908C126.225 13.5347 125.217 13.1147 124.414 12.648C123.63 12.1813 123.042 11.612 122.65 10.94C122.277 10.268 122.09 9.428 122.09 8.42C122.09 7.02 122.417 5.844 123.07 4.892C123.742 3.92133 124.638 3.19333 125.758 2.708C126.878 2.204 128.101 1.952 129.426 1.952C130.359 1.952 131.255 2.064 132.114 2.28799C132.991 2.51199 133.803 2.792 134.55 3.128C135.315 3.464 135.997 3.8 136.594 4.136L134.578 7.944Z" fill="white"/>
<path d="M148.417 22.168C146.83 22.168 145.477 21.9067 144.357 21.384C143.237 20.8427 142.322 20.1147 141.613 19.2C140.922 18.2667 140.409 17.212 140.073 16.036C139.755 14.8413 139.597 13.5907 139.597 12.284V2.12H144.189V12.284C144.189 13.0307 144.263 13.7587 144.413 14.468C144.562 15.1587 144.805 15.7747 145.141 16.316C145.477 16.8573 145.906 17.2867 146.429 17.604C146.97 17.9213 147.633 18.08 148.417 18.08C149.219 18.08 149.891 17.9213 150.433 17.604C150.974 17.268 151.403 16.8293 151.721 16.288C152.038 15.728 152.271 15.1027 152.421 14.412C152.57 13.7213 152.645 13.012 152.645 12.284V2.12H157.237V12.284C157.237 13.6653 157.059 14.9533 156.705 16.148C156.369 17.3427 155.846 18.3973 155.137 19.312C154.427 20.208 153.513 20.908 152.393 21.412C151.291 21.916 149.966 22.168 148.417 22.168Z" fill="white"/>
<path d="M176.475 22V10.156L172.191 18.78H169.671L165.387 10.156V22H160.795V2.12H165.779L170.931 12.508L176.111 2.12H181.067V22H176.475Z" fill="white"/>
<path d="M-0.0960083 22V2.12H4.49599V17.968H14.128V22H-0.0960083Z" stroke="black" stroke-width="2" mask="url(#path-1-outside-1_12405_6)"/>
<path d="M24.6354 22.168C23.1421 22.168 21.7888 21.888 20.5754 21.328C19.3808 20.7493 18.3448 19.984 17.4674 19.032C16.6088 18.0613 15.9461 16.9787 15.4794 15.784C15.0128 14.5707 14.7794 13.32 14.7794 12.032C14.7794 10.7067 15.0221 9.44666 15.5074 8.252C16.0114 7.05733 16.7021 5.99333 17.5794 5.06C18.4754 4.108 19.5301 3.36133 20.7434 2.81999C21.9568 2.27866 23.2821 2.00799 24.7194 2.00799C26.1941 2.00799 27.5288 2.29733 28.7234 2.876C29.9368 3.436 30.9728 4.20133 31.8314 5.172C32.7088 6.14266 33.3808 7.23466 33.8474 8.448C34.3141 9.64266 34.5474 10.8653 34.5474 12.116C34.5474 13.4413 34.3048 14.7013 33.8194 15.896C33.3341 17.0907 32.6434 18.164 31.7474 19.116C30.8514 20.0493 29.7968 20.796 28.5834 21.356C27.3888 21.8973 26.0728 22.168 24.6354 22.168ZM19.4554 12.088C19.4554 12.8533 19.5674 13.6 19.7914 14.328C20.0154 15.0373 20.3421 15.672 20.7714 16.232C21.2194 16.792 21.7701 17.24 22.4234 17.576C23.0768 17.912 23.8234 18.08 24.6634 18.08C25.5408 18.08 26.3061 17.912 26.9594 17.576C27.6128 17.2213 28.1541 16.7547 28.5834 16.176C29.0128 15.5973 29.3301 14.9533 29.5354 14.244C29.7594 13.516 29.8714 12.7787 29.8714 12.032C29.8714 11.2667 29.7594 10.5293 29.5354 9.81999C29.3114 9.11066 28.9754 8.476 28.5274 7.916C28.0794 7.33733 27.5288 6.88933 26.8754 6.572C26.2221 6.25466 25.4848 6.096 24.6634 6.096C23.7861 6.096 23.0208 6.264 22.3674 6.6C21.7328 6.936 21.1914 7.39333 20.7434 7.97199C20.3141 8.53199 19.9874 9.176 19.7634 9.904C19.5581 10.6133 19.4554 11.3413 19.4554 12.088Z" stroke="black" stroke-width="2" mask="url(#path-1-outside-1_12405_6)"/>
<path d="M37.2009 22V2.12H46.1609C47.0942 2.12 47.9529 2.316 48.7369 2.708C49.5395 3.08133 50.2302 3.59466 50.8089 4.248C51.3875 4.88266 51.8355 5.60133 52.1529 6.404C52.4889 7.20666 52.6569 8.01866 52.6569 8.84C52.6569 9.66133 52.5262 10.4453 52.2649 11.192C52.0035 11.92 51.6302 12.5827 51.1449 13.18C50.6595 13.7587 50.0809 14.2347 49.4089 14.608L53.7769 22H48.7089L44.9009 15.588H41.7929V22H37.2009ZM41.7929 11.584H45.9929C46.3662 11.584 46.6929 11.472 46.9729 11.248C47.2715 11.0053 47.5142 10.6787 47.7009 10.268C47.8875 9.85733 47.9809 9.38133 47.9809 8.84C47.9809 8.29866 47.8689 7.832 47.6449 7.43999C47.4395 7.02933 47.1782 6.71199 46.8609 6.488C46.5435 6.26399 46.2075 6.15199 45.8529 6.15199H41.7929V11.584Z" stroke="black" stroke-width="2" mask="url(#path-1-outside-1_12405_6)"/>
<path d="M69.9307 17.968V22H55.9587V2.12H69.6787V6.15199H60.5507V10.016H68.3907V13.74H60.5507V17.968H69.9307Z" stroke="black" stroke-width="2" mask="url(#path-1-outside-1_12405_6)"/>
<path d="M88.4004 22V10.156L84.1164 18.78H81.5964L77.3124 10.156V22H72.7204V2.12H77.7044L82.8564 12.508L88.0364 2.12H92.9924V22H88.4004Z" stroke="black" stroke-width="2" mask="url(#path-1-outside-1_12405_6)"/>
<path d="M96.8102 22V2.12H101.402V22H96.8102Z" stroke="black" stroke-width="2" mask="url(#path-1-outside-1_12405_6)"/>
<path d="M105.205 22V2.12H113.689C114.641 2.12 115.509 2.316 116.293 2.708C117.095 3.08133 117.786 3.59466 118.365 4.248C118.943 4.88266 119.391 5.60133 119.709 6.404C120.026 7.20666 120.185 8.028 120.185 8.868C120.185 10.0067 119.914 11.0893 119.373 12.116C118.85 13.1427 118.113 13.9827 117.161 14.636C116.227 15.2707 115.117 15.588 113.829 15.588H109.797V22H105.205ZM109.797 11.584H113.549C113.903 11.584 114.23 11.4813 114.529 11.276C114.827 11.0707 115.07 10.7627 115.257 10.352C115.443 9.94133 115.537 9.43733 115.537 8.84C115.537 8.224 115.425 7.72 115.201 7.328C114.995 6.91733 114.725 6.61866 114.389 6.43199C114.071 6.24533 113.735 6.15199 113.381 6.15199H109.797V11.584Z" stroke="black" stroke-width="2" mask="url(#path-1-outside-1_12405_6)"/>
<path d="M134.578 7.944C134.522 7.85066 134.326 7.71066 133.99 7.524C133.654 7.31866 133.234 7.104 132.73 6.88C132.226 6.65599 131.675 6.46 131.078 6.292C130.481 6.12399 129.883 6.04 129.286 6.04C128.502 6.04 127.895 6.18 127.466 6.46C127.037 6.72133 126.822 7.132 126.822 7.692C126.822 8.14 126.981 8.49466 127.298 8.756C127.634 9.01733 128.11 9.25066 128.726 9.456C129.342 9.64266 130.098 9.86666 130.994 10.128C132.263 10.464 133.365 10.8747 134.298 11.36C135.231 11.8267 135.941 12.4333 136.426 13.18C136.93 13.9267 137.182 14.916 137.182 16.148C137.182 17.268 136.977 18.22 136.566 19.004C136.155 19.7693 135.595 20.3947 134.886 20.88C134.195 21.3467 133.402 21.692 132.506 21.916C131.61 22.1213 130.686 22.224 129.734 22.224C128.763 22.224 127.765 22.1307 126.738 21.944C125.73 21.7387 124.759 21.4587 123.826 21.104C122.893 20.7307 122.034 20.2827 121.25 19.76L123.266 15.756C123.341 15.8493 123.583 16.0267 123.994 16.288C124.405 16.5307 124.909 16.792 125.506 17.072C126.122 17.3333 126.803 17.5667 127.55 17.772C128.297 17.9773 129.053 18.08 129.818 18.08C130.639 18.08 131.246 17.9493 131.638 17.688C132.049 17.4267 132.254 17.0627 132.254 16.596C132.254 16.092 132.039 15.7 131.61 15.42C131.199 15.14 130.63 14.888 129.902 14.664C129.193 14.44 128.371 14.188 127.438 13.908C126.225 13.5347 125.217 13.1147 124.414 12.648C123.63 12.1813 123.042 11.612 122.65 10.94C122.277 10.268 122.09 9.428 122.09 8.42C122.09 7.02 122.417 5.844 123.07 4.892C123.742 3.92133 124.638 3.19333 125.758 2.708C126.878 2.204 128.101 1.952 129.426 1.952C130.359 1.952 131.255 2.064 132.114 2.28799C132.991 2.51199 133.803 2.792 134.55 3.128C135.315 3.464 135.997 3.8 136.594 4.136L134.578 7.944Z" stroke="black" stroke-width="2" mask="url(#path-1-outside-1_12405_6)"/>
<path d="M148.417 22.168C146.83 22.168 145.477 21.9067 144.357 21.384C143.237 20.8427 142.322 20.1147 141.613 19.2C140.922 18.2667 140.409 17.212 140.073 16.036C139.755 14.8413 139.597 13.5907 139.597 12.284V2.12H144.189V12.284C144.189 13.0307 144.263 13.7587 144.413 14.468C144.562 15.1587 144.805 15.7747 145.141 16.316C145.477 16.8573 145.906 17.2867 146.429 17.604C146.97 17.9213 147.633 18.08 148.417 18.08C149.219 18.08 149.891 17.9213 150.433 17.604C150.974 17.268 151.403 16.8293 151.721 16.288C152.038 15.728 152.271 15.1027 152.421 14.412C152.57 13.7213 152.645 13.012 152.645 12.284V2.12H157.237V12.284C157.237 13.6653 157.059 14.9533 156.705 16.148C156.369 17.3427 155.846 18.3973 155.137 19.312C154.427 20.208 153.513 20.908 152.393 21.412C151.291 21.916 149.966 22.168 148.417 22.168Z" stroke="black" stroke-width="2" mask="url(#path-1-outside-1_12405_6)"/>
<path d="M176.475 22V10.156L172.191 18.78H169.671L165.387 10.156V22H160.795V2.12H165.779L170.931 12.508L176.111 2.12H181.067V22H176.475Z" stroke="black" stroke-width="2" mask="url(#path-1-outside-1_12405_6)"/>
</g>
<defs>
<filter id="filter0_d_12405_6" x="-5.09601" y="0.951996" width="191.163" height="30.272" filterUnits="userSpaceOnUse" color-interpolation-filters="sRGB">
<feFlood flood-opacity="0" result="BackgroundImageFix"/>
<feColorMatrix in="SourceAlpha" type="matrix" values="0 0 0 0 0 0 0 0 0 0 0 0 0 0 0 0 0 0 127 0" result="hardAlpha"/>
<feOffset dy="4"/>
<feGaussianBlur stdDeviation="2"/>
<feComposite in2="hardAlpha" operator="out"/>
<feColorMatrix type="matrix" values="0 0 0 0 0 0 0 0 0 0 0 0 0 0 0 0 0 0 0.25 0"/>
<feBlend mode="normal" in2="BackgroundImageFix" result="effect1_dropShadow_12405_6"/>
<feBlend mode="normal" in="SourceGraphic" in2="effect1_dropShadow_12405_6" result="shape"/>
</filter>
</defs>
</svg>
